<svg width="634" height="863" viewBox="0 0 634 863" fill="none" xmlns="http://www.w3.org/2000/svg">
<path d="M19.0266 854.5L1.02661 791.5C1.02661 791.5 32.8337 697.876 94.169 594.491C155.504 491.106 250.789 264.302 250.789 264.302C250.789 264.302 187.963 271.282 155.504 294.413C122.187 318.155 83.3748 380.918 83.3748 380.918C83.3748 380.918 84.1824 356.649 85.928 341.207C88.1863 321.231 94.169 301.862 94.169 301.862C94.169 301.862 56.3956 335.437 44.6547 361.339C34.5281 383.68 28.9022 428.683 28.9022 428.683C4.60743 356.704 20.3149 307.839 69.9496 263.519C120.091 218.745 240.945 241.982 240.945 241.982C240.945 241.982 213.102 212.761 192.103 199.928C168.94 185.772 120.351 161.136 120.351 161.136L187.875 176.87C187.875 176.87 147.623 138.342 117.273 120.171C90.795 104.318 45.0989 87.9412 45.0989 87.9412L129.686 104.772C129.686 104.772 111.461 82.1266 92.06 68.175C72.6586 54.2234 20.6722 23.7105 20.6722 23.7105C20.6722 23.7105 183.001 51.0848 225.341 127.12C247.821 167.489 269.23 227.535 269.23 227.535C269.23 227.535 281.119 194.025 285.296 171.741C290.614 143.374 290.038 97.9931 290.038 97.9931L307.386 144.68C307.386 144.68 319.366 100.316 312.127 70.9315C304.889 41.5466 283.811 0.754343 283.811 0.754343C283.811 0.754343 369.952 57.8526 363.697 119.818C359.421 162.182 298.374 234.83 298.374 234.83C357.568 186.883 472.678 129.51 552.581 160.444C615.331 184.738 639.884 223.759 631.869 288.804C631.869 288.804 615.688 262.514 601.607 248.905C587.525 235.295 559.752 219.105 559.752 219.105L568.567 252.202C568.567 252.202 536.649 225.325 516.592 216.33C496.534 207.334 420.344 203.21 420.344 203.21L470.075 229.193C470.075 229.193 424.149 219.607 395.273 224.383C369.82 228.593 333.574 247.937 333.574 247.937C333.574 247.937 457.456 280.535 508.26 345.918C559.808 412.259 570.551 531.864 570.551 531.864C570.551 531.864 557.792 501.343 543.088 478.282C521.093 443.785 488.359 393.436 488.359 393.436L483.152 474.429C483.152 474.429 477.201 439.814 463.933 413.553C450.664 387.291 430.475 357.663 430.475 357.663L425.992 427.379C425.992 427.379 410.629 368.95 387.957 338.184C361.213 301.893 337.512 287.655 298.799 278.233C298.799 278.233 332.868 341.032 346.691 384.327C365.973 444.723 384.62 511.851 372.681 575.763C363.125 626.921 307.252 657.345 307.252 657.345C307.252 657.345 321.964 620.751 326.651 594.491C331.338 568.231 331.665 516.505 331.665 516.505L293.891 571.04C293.891 571.04 300.433 531.743 303.956 503.331C307.479 474.919 309.321 419.877 309.321 419.877L271.376 477.078C271.376 477.078 288.423 410.533 284.635 359.679C282.527 331.371 271.584 296.18 271.584 296.18C271.584 296.18 201.716 550.5 110.527 729.5C19.3376 908.5 19.0266 854.5 19.0266 854.5Z" fill="#272B2B" stroke="#272B2B" stroke-linejoin="round"/>
</svg>
