<svg width="762" height="1089" viewBox="0 0 762 1089" fill="none" xmlns="http://www.w3.org/2000/svg">
<path d="M557.136 679.752C534.37 579.333 467.341 368.661 467.341 368.661C467.341 368.661 459.804 442.646 458.328 480.018C457.08 511.633 470.682 576.103 470.682 576.103L439.313 537.997L476.218 713.379C476.218 713.379 408.932 632.341 395.066 577.694C372.111 487.223 397.902 418.294 439.759 307.672C439.759 307.672 415.164 321.816 402.369 334.397C374.141 362.154 327.666 444.286 327.666 444.286L342.059 357.329C342.059 357.329 319.936 377.178 290.198 414.574C260.461 451.97 233.035 503.855 233.035 503.855L264.967 396.292C264.967 396.292 209.28 448.201 191.741 468.808C160.513 505.498 118.553 569.543 118.553 569.543C118.553 569.543 136.862 471.821 167.228 417.731C193.796 370.406 254.168 319.272 254.168 319.272L190.789 332.292C190.789 332.292 239.619 293.354 290.004 273.481C323.748 260.172 386.985 256.619 386.985 256.619C386.985 256.619 302.92 223.897 249.467 233.857C221.608 239.049 169.306 262.908 169.306 262.908L195.217 220.176C195.217 220.176 161.816 226.334 144.833 240.049C127.849 253.764 90.6606 282.805 90.6606 282.805L114.26 225.584C114.26 225.584 87.6776 240.55 61.603 259.187C35.5284 277.825 1.33203 310.338 1.33203 310.338C21.813 237.025 89.4047 175.625 163.052 158.428C207.532 148.041 235.474 153.099 279.923 163.666C354.337 181.357 446.577 266.482 446.577 266.482C446.577 266.482 425.606 203.65 401.378 169.662C344.742 90.2116 270.404 59.9049 174.414 89.7782C174.414 89.7782 201.934 62.921 223.245 50.8401C244.556 38.7593 283.555 27.9082 283.555 27.9082L225.478 8.8916C293.168 -5.25283 373.183 -6.86742 421.073 50.6696C449.167 84.4222 467.787 138.336 467.787 138.336L478.392 74.2628C478.392 74.2628 492.419 115.903 492.26 161.195C492.109 204.713 478.703 300.012 478.703 300.012C478.703 300.012 510.905 244.222 543.519 221.401C578.736 196.759 648.115 186.991 648.115 186.991L616.066 209.899C616.066 209.899 663.946 215.963 692.478 231.95C725.105 250.232 761.315 299.768 761.315 299.768C761.315 299.768 689.927 261.459 635.995 260.217C572.663 258.759 506.207 304.564 506.207 304.564C506.207 304.564 555.416 317.34 607.093 349.474C644.048 372.454 683.611 411.104 701.161 435.574C743.252 494.263 725.071 604.103 725.071 604.103C725.071 604.103 711.351 565.606 702.074 543.872C692.797 522.138 677.561 492.795 677.561 492.795L666.16 533.226C666.16 533.226 657.84 507.893 650.058 488.242C642.275 468.592 601.829 409.729 601.829 409.729L601.907 466.167C601.907 466.167 579.118 423.987 565.157 403.66C542.953 371.329 500.147 341.177 500.147 341.177C500.147 341.177 571.591 548.806 604.452 649.967C641.801 764.943 710.477 884.5 710.477 884.5L677.561 1088.5C677.561 1088.5 583.666 796.773 557.136 679.752Z" fill="#272B2B" stroke="#272B2B" stroke-linejoin="round"/>
</svg>
