<svg width="787" height="746" viewBox="0 0 787 746" fill="none" xmlns="http://www.w3.org/2000/svg" style="background-color:#101414;">
<style>
:root {
	--main: #F19A3E;
	--secondary: #51C0C0;
}
.main{
	stroke: var(--main);
	fill: var(--main);
}
.secondary{
	stroke: var(--secondary);
	fill: var(--secondary);
}
path.sdc {
	
}
path.tf {

}
path.palm-right {

}
path.palm-left {

}

.no-stroke{stroke:unset !important;}
</style>
<path d="M546.271 476.163L500.579 493.818L597.195 198.737C597.195 198.737 568.256 203.863 553.886 215.593C539.137 227.633 523.002 257.989 523.002 257.989C523.002 257.989 522.653 246.676 523.002 239.441C523.454 230.081 525.652 220.893 525.652 220.893C525.652 220.893 509.128 237.64 504.454 250.04C500.422 260.735 499.154 281.837 499.154 281.837C485.736 249.082 491.565 225.882 513.271 203.781C535.199 181.454 591.963 188.649 591.963 188.649C591.963 188.649 578.173 175.889 568.048 170.547C556.879 164.655 533.601 154.649 533.601 154.649L565.398 159.948C565.398 159.948 545.574 143.23 530.951 135.685C518.194 129.103 496.504 122.852 496.504 122.852L536.251 128.151C536.251 128.151 527.12 118.162 517.703 112.253C508.285 106.343 483.256 93.7043 483.256 93.7043C483.256 93.7043 559.385 101.583 581.297 135.685C592.93 153.792 604.655 181.082 604.655 181.082C604.655 181.082 609.171 165.139 610.444 154.649C612.065 141.294 610.444 120.202 610.444 120.202L619.885 141.4C619.885 141.4 624.12 120.405 619.885 106.953C615.65 93.5008 604.655 75.156 604.655 75.156C604.655 75.156 646.323 99.1398 645.269 128.151C644.549 147.985 618.393 183.605 618.393 183.605C644.426 159.531 696.12 129.4 734.114 141.4C763.952 150.824 776.507 168.241 774.729 198.737C774.729 198.737 766.438 186.992 759.498 181.082C752.559 175.173 739.191 168.472 739.191 168.472L744.268 183.605C744.268 183.605 728.658 172.057 719.084 168.472C709.51 164.888 674.038 165.248 674.038 165.248L697.886 175.847C697.886 175.847 676.293 172.762 663.038 175.847C651.355 178.566 635.116 188.649 635.116 188.649C635.116 188.649 693.563 200.107 719.084 229.002C744.979 258.319 753.531 313.634 753.531 313.634C753.531 313.634 746.701 299.818 739.191 289.531C727.957 274.142 711.268 251.7 711.268 251.7V289.531C711.268 289.531 707.475 273.607 700.536 261.788C693.597 249.969 683.346 236.791 683.346 236.791V269.354C683.346 269.354 674.475 242.635 663.038 229.002C649.548 212.92 638.127 207.006 619.885 203.781C619.885 203.781 637.565 231.974 645.269 251.7C656.017 279.217 666.671 309.885 663.038 339.972C660.131 364.055 635.116 379.878 635.116 379.878C635.116 379.878 640.85 362.416 642.241 350.06C643.632 337.705 642.241 313.634 642.241 313.634L626.343 340.132C626.343 340.132 628.205 321.656 628.992 308.335C629.779 295.013 628.992 269.354 628.992 269.354L613.094 297.097C613.094 297.097 619.018 265.633 615.744 242.091C613.921 228.986 607.794 212.943 607.794 212.943L546.271 476.163Z" class="main palm-right" stroke-linejoin="round"/>
<path d="M 348.118 361.33 C 325.958 306.864 268.625 194.395 268.625 194.395 C 268.625 194.395 271.275 236.791 273.925 257.989 C 276.167 275.922 289.824 310.985 289.824 310.985 L 268.625 292.436 L 305.722 387.828 C 305.722 387.828 260.318 348.436 247.427 318.934 C 226.087 270.091 234.179 228.842 247.427 162.598 C 247.427 162.598 234.906 172.863 228.879 181.146 C 215.582 199.421 197.082 250.04 197.082 250.04 V 199.695 C 197.082 199.695 186.483 212.944 173.234 236.791 C 159.985 260.639 149.386 292.436 149.386 292.436 L 157.336 228.842 C 157.336 228.842 130.838 263.289 122.889 276.538 C 108.735 300.127 91.0917 340.132 91.0917 340.132 C 91.0917 340.132 92.2926 283.354 104.341 250.04 C 114.882 220.893 144.087 186.446 144.087 186.446 L 109.64 199.695 C 109.64 199.695 133.488 173.197 159.985 157.299 C 177.731 146.651 212.981 138.75 212.981 138.75 C 212.981 138.75 162.635 128.151 133.488 138.75 C 118.297 144.274 91.0917 162.598 91.0917 162.598 L 101.691 136.101 C 101.691 136.101 83.4716 142.686 75.1932 151.999 C 66.9148 161.312 48.6956 181.146 48.6956 181.146 L 56.6449 146.7 C 56.6449 146.7 43.0823 157.612 30.1473 170.547 C 17.2124 183.482 1 204.994 1 204.994 C 5.696 161.769 38.0079 120.864 77.843 104.303 C 101.902 94.3013 118.094 94.5451 144.087 96.3542 C 187.603 99.3829 247.427 138.75 247.427 138.75 C 247.427 138.75 229.777 105.299 212.981 88.4049 C 173.716 48.9142 129.069 38.7691 77.843 64.5571 C 77.843 64.5571 90.8254 46.8553 101.691 38.0595 C 112.556 29.2638 133.488 19.5112 133.488 19.5112 L 99.041 14.2117 C 135.808 -0.0728 180.678 -8.446 212.981 19.5112 C 231.93 35.9116 247.427 64.5571 247.427 64.5571 V 27.4605 C 247.427 27.4605 259.197 49.6179 263.326 75.1561 C 267.293 99.6941 268.625 154.649 268.625 154.649 C 268.625 154.649 281.548 120.206 297.773 104.303 C 315.292 87.1321 353.418 75.1561 353.418 75.1561 L 337.519 91.0547 C 337.519 91.0547 365.023 90.0064 382.565 96.3542 C 402.625 103.613 427.611 128.151 427.611 128.151 C 427.611 128.151 383.878 113.221 353.418 117.552 C 317.649 122.638 284.524 154.649 284.524 154.649 C 284.524 154.649 313.401 157.259 345.468 170.547 C 368.401 180.051 394.26 198.141 406.413 210.294 C 435.56 239.441 435.56 303.035 435.56 303.035 C 435.56 303.035 424.255 282.621 417.012 271.238 C 409.768 259.855 398.464 244.741 398.464 244.741 L 395.814 268.588 C 395.814 268.588 388.774 255.089 382.565 244.741 C 376.356 234.393 348.118 204.994 348.118 204.994 L 353.418 236.791 C 353.418 236.791 336.668 215.147 326.92 204.994 C 311.416 188.846 284.524 175.847 284.524 175.847 C 284.524 175.847 344.056 286.189 371.966 340.132 C 403.687 401.441 449 510 449 510 L 393 529 C 393 529 373.943 424.801 348.118 361.33 Z" class="secondary palm-left" stroke-linejoin="round"/>
<path d="M127.746 744.215C102.219 743.953 76.6919 743.534 51.1126 743.062C48.02 742.905 45.7137 741.647 44.246 739.393C42.8308 736.877 42.0969 732.946 42.0445 727.547C41.6252 710.983 41.2583 694.367 40.8389 677.594C40.7341 672.195 41.3107 668.473 42.5687 666.481C44.0364 664.123 46.1854 663.179 49.3828 663.756C71.2406 667.32 93.0983 670.518 114.956 673.663C117.105 673.925 118.573 673.191 119.621 671.356C120.722 669.207 121.141 666.744 121.089 663.703C121.089 659.51 120.407 656.26 119.307 654.111C118.206 651.91 116.686 650.442 114.537 649.813C102.271 644.781 90.0057 639.644 77.7402 634.35C66.2086 629.056 56.8784 620.617 49.5401 608.718C42.5163 596.663 38.6374 578.317 38.1133 554.205C37.7464 539.109 37.4319 524.013 37.065 508.865C36.6456 484.648 40.5769 468.19 49.3828 459.908C58.2412 452.045 70.7164 452.412 86.7559 460.589C109.872 472.488 133.04 484.177 156.155 495.813C159.353 497.386 161.554 499.43 162.97 502.208C164.437 504.619 165.276 508.079 165.276 512.272C165.486 525.743 165.8 539.214 166.01 552.685C166.115 556.878 165.433 559.919 164.018 561.386C162.707 562.697 160.454 562.802 157.361 561.648C138.229 554.362 119.044 547.024 99.86 539.633C97.7109 538.795 96.1384 539.371 95.0377 541.206C93.8845 542.883 93.4128 545.452 93.4128 548.806C93.5176 552.213 94.1466 555.306 95.2998 558.084C96.5053 560.862 98.2351 562.749 100.332 563.693C112.65 570.402 124.915 577.006 137.128 583.454C148.712 589.482 158.042 597.711 165.223 608.037C172.404 618.153 176.231 632.463 176.493 651.176C176.703 662.865 176.912 674.501 177.07 686.138C177.384 704.955 173.034 719.317 164.228 729.277C155.422 739.341 143.261 744.32 127.746 744.215ZM295.112 745.683C267.803 745.421 240.546 745.159 213.289 744.949C210.197 744.897 207.943 744.058 206.423 742.223C205.112 740.336 204.483 737.454 204.379 733.47C203.383 665.381 202.334 597.292 201.338 529.098C201.234 525.062 201.758 522.546 203.121 521.445C204.588 520.239 206.947 520.449 210.092 522.021C237.925 535.021 265.654 547.653 293.434 559.971C314.086 568.777 329.34 579.208 339.246 590.949C349.258 602.271 354.342 615.533 354.447 631.1C354.5 654.268 354.604 677.384 354.604 700.657C354.709 716.172 349.835 727.442 339.98 734.623C330.283 742.119 315.344 745.997 295.112 745.683ZM257.948 597.449C258.368 628.899 258.63 660.349 258.997 691.904C268.746 693.109 278.338 694.21 288.035 695.415C291.914 695.887 294.797 695.206 296.527 693.476C298.519 691.589 299.41 688.601 299.41 684.356C299.253 663.913 299.095 643.523 298.991 623.185C298.886 618.887 297.89 615.585 295.898 613.121C294.063 610.553 291.233 608.561 287.197 607.198C277.5 604.053 267.803 600.751 257.948 597.449ZM127.746 744.215C102.219 743.953 76.6919 743.534 51.1126 743.062C48.02 742.905 45.7137 741.647 44.246 739.393C42.8308 736.877 42.0969 732.946 42.0445 727.547C41.6252 710.983 41.2583 694.367 40.8389 677.594C40.7341 672.195 41.3107 668.473 42.5687 666.481C44.0364 664.123 46.1854 663.179 49.3828 663.756C71.2406 667.32 93.0983 670.518 114.956 673.663C117.105 673.925 118.573 673.191 119.621 671.356C120.722 669.207 121.141 666.744 121.089 663.703C121.089 659.51 120.407 656.26 119.307 654.111C118.206 651.91 116.686 650.442 114.537 649.813C102.271 644.781 90.0057 639.644 77.7402 634.35C66.2086 629.056 56.8784 620.617 49.5401 608.718C42.5163 596.663 38.6374 578.317 38.1133 554.205C37.7464 539.109 37.4319 524.013 37.065 508.865C36.6456 484.648 40.5769 468.19 49.3828 459.908C58.2412 452.045 70.7164 452.412 86.7559 460.589C109.872 472.488 133.04 484.177 156.155 495.813C159.353 497.386 161.554 499.43 162.97 502.208C164.437 504.619 165.276 508.079 165.276 512.272C165.486 525.743 165.8 539.214 166.01 552.685C166.115 556.878 165.433 559.919 164.018 561.386C162.707 562.697 160.454 562.802 157.361 561.648C138.229 554.362 119.044 547.024 99.86 539.633C97.7109 538.795 96.1384 539.371 95.0377 541.206C93.8845 542.883 93.4128 545.452 93.4128 548.806C93.5176 552.213 94.1466 555.306 95.2998 558.084C96.5053 560.862 98.2351 562.749 100.332 563.693C112.65 570.402 124.915 577.006 137.128 583.454C148.712 589.482 158.042 597.711 165.223 608.037C172.404 618.153 176.231 632.463 176.493 651.176C176.703 662.865 176.912 674.501 177.07 686.138C177.384 704.955 173.034 719.317 164.228 729.277C155.422 739.341 143.261 744.32 127.746 744.215ZM295.112 745.683C267.803 745.421 240.546 745.159 213.289 744.949C210.197 744.897 207.943 744.058 206.423 742.223C205.112 740.336 204.483 737.454 204.379 733.47C203.383 665.381 202.334 597.292 201.338 529.098C201.234 525.062 201.758 522.546 203.121 521.445C204.588 520.239 206.947 520.449 210.092 522.021C237.925 535.021 265.654 547.653 293.434 559.971C314.086 568.777 329.34 579.208 339.246 590.949C349.258 602.271 354.342 615.533 354.447 631.1C354.5 654.268 354.604 677.384 354.604 700.657C354.709 716.172 349.835 727.442 339.98 734.623C330.283 742.119 315.344 745.997 295.112 745.683ZM257.948 597.449C258.368 628.899 258.63 660.349 258.997 691.904C268.746 693.109 278.338 694.21 288.035 695.415C291.914 695.887 294.797 695.206 296.527 693.476C298.519 691.589 299.41 688.601 299.41 684.356C299.253 663.913 299.095 643.523 298.991 623.185C298.886 618.887 297.89 615.585 295.898 613.121C294.063 610.553 291.233 608.561 287.197 607.198C277.5 604.053 267.803 600.751 257.948 597.449ZM127.746 744.215C102.219 743.953 76.6919 743.534 51.1126 743.062C48.02 742.905 45.7137 741.647 44.246 739.393C42.8308 736.877 42.0969 732.946 42.0445 727.547C41.6252 710.983 41.2583 694.367 40.8389 677.594C40.7341 672.195 41.3107 668.473 42.5687 666.481C44.0364 664.123 46.1854 663.179 49.3828 663.756C71.2406 667.32 93.0983 670.518 114.956 673.663C117.105 673.925 118.573 673.191 119.621 671.356C120.722 669.207 121.141 666.744 121.089 663.703C121.089 659.51 120.407 656.26 119.307 654.111C118.206 651.91 116.686 650.442 114.537 649.813C102.271 644.781 90.0057 639.644 77.7402 634.35C66.2086 629.056 56.8784 620.617 49.5401 608.718C42.5163 596.663 38.6374 578.317 38.1133 554.205C37.7464 539.109 37.4319 524.013 37.065 508.865C36.6456 484.648 40.5769 468.19 49.3828 459.908C58.2412 452.045 70.7164 452.412 86.7559 460.589C109.872 472.488 133.04 484.177 156.155 495.813C159.353 497.386 161.554 499.43 162.97 502.208C164.437 504.619 165.276 508.079 165.276 512.272C165.486 525.743 165.8 539.214 166.01 552.685C166.115 556.878 165.433 559.919 164.018 561.386C162.707 562.697 160.454 562.802 157.361 561.648C138.229 554.362 119.044 547.024 99.86 539.633C97.7109 538.795 96.1384 539.371 95.0377 541.206C93.8845 542.883 93.4128 545.452 93.4128 548.806C93.5176 552.213 94.1466 555.306 95.2998 558.084C96.5053 560.862 98.2351 562.749 100.332 563.693C112.65 570.402 124.915 577.006 137.128 583.454C148.712 589.482 158.042 597.711 165.223 608.037C172.404 618.153 176.231 632.463 176.493 651.176C176.703 662.865 176.912 674.501 177.07 686.138C177.384 704.955 173.034 719.317 164.228 729.277C155.422 739.341 143.261 744.32 127.746 744.215ZM295.112 745.683C267.803 745.421 240.546 745.159 213.289 744.949C210.197 744.897 207.943 744.058 206.423 742.223C205.112 740.336 204.483 737.454 204.379 733.47C203.383 665.381 202.334 597.292 201.338 529.098C201.234 525.062 201.758 522.546 203.121 521.445C204.588 520.239 206.947 520.449 210.092 522.021C237.925 535.021 265.654 547.653 293.434 559.971C314.086 568.777 329.34 579.208 339.246 590.949C349.258 602.271 354.342 615.533 354.447 631.1C354.5 654.268 354.604 677.384 354.604 700.657C354.709 716.172 349.835 727.442 339.98 734.623C330.283 742.119 315.344 745.997 295.112 745.683ZM257.948 597.449C258.368 628.899 258.63 660.349 258.997 691.904C268.746 693.109 278.338 694.21 288.035 695.415C291.914 695.887 294.797 695.206 296.527 693.476C298.519 691.589 299.41 688.601 299.41 684.356C299.253 663.913 299.095 643.523 298.991 623.185C298.886 618.887 297.89 615.585 295.898 613.121C294.063 610.553 291.233 608.561 287.197 607.198C277.5 604.053 267.803 600.751 257.948 597.449ZM127.746 744.215C102.219 743.953 76.6919 743.534 51.1126 743.062C48.02 742.905 45.7137 741.647 44.246 739.393C42.8308 736.877 42.0969 732.946 42.0445 727.547C41.6252 710.983 41.2583 694.367 40.8389 677.594C40.7341 672.195 41.3107 668.473 42.5687 666.481C44.0364 664.123 46.1854 663.179 49.3828 663.756C71.2406 667.32 93.0983 670.518 114.956 673.663C117.105 673.925 118.573 673.191 119.621 671.356C120.722 669.207 121.141 666.744 121.089 663.703C121.089 659.51 120.407 656.26 119.307 654.111C118.206 651.91 116.686 650.442 114.537 649.813C102.271 644.781 90.0057 639.644 77.7402 634.35C66.2086 629.056 56.8784 620.617 49.5401 608.718C42.5163 596.663 38.6374 578.317 38.1133 554.205C37.7464 539.109 37.4319 524.013 37.065 508.865C36.6456 484.648 40.5769 468.19 49.3828 459.908C58.2412 452.045 70.7164 452.412 86.7559 460.589C109.872 472.488 133.04 484.177 156.155 495.813C159.353 497.386 161.554 499.43 162.97 502.208C164.437 504.619 165.276 508.079 165.276 512.272C165.486 525.743 165.8 539.214 166.01 552.685C166.115 556.878 165.433 559.919 164.018 561.386C162.707 562.697 160.454 562.802 157.361 561.648C138.229 554.362 119.044 547.024 99.86 539.633C97.7109 538.795 96.1384 539.371 95.0377 541.206C93.8845 542.883 93.4128 545.452 93.4128 548.806C93.5176 552.213 94.1466 555.306 95.2998 558.084C96.5053 560.862 98.2351 562.749 100.332 563.693C112.65 570.402 124.915 577.006 137.128 583.454C148.712 589.482 158.042 597.711 165.223 608.037C172.404 618.153 176.231 632.463 176.493 651.176C176.703 662.865 176.912 674.501 177.07 686.138C177.384 704.955 173.034 719.317 164.228 729.277C155.422 739.341 143.261 744.32 127.746 744.215ZM295.112 745.683C267.803 745.421 240.546 745.159 213.289 744.949C210.197 744.897 207.943 744.058 206.423 742.223C205.112 740.336 204.483 737.454 204.379 733.47C203.383 665.381 202.334 597.292 201.338 529.098C201.234 525.062 201.758 522.546 203.121 521.445C204.588 520.239 206.947 520.449 210.092 522.021C237.925 535.021 265.654 547.653 293.434 559.971C314.086 568.777 329.34 579.208 339.246 590.949C349.258 602.271 354.342 615.533 354.447 631.1C354.5 654.268 354.604 677.384 354.604 700.657C354.709 716.172 349.835 727.442 339.98 734.623C330.283 742.119 315.344 745.997 295.112 745.683ZM257.948 597.449C258.368 628.899 258.63 660.349 258.997 691.904C268.746 693.109 278.338 694.21 288.035 695.415C291.914 695.887 294.797 695.206 296.527 693.476C298.519 691.589 299.41 688.601 299.41 684.356C299.253 663.913 299.095 643.523 298.991 623.185C298.886 618.887 297.89 615.585 295.898 613.121C294.063 610.553 291.233 608.561 287.197 607.198C277.5 604.053 267.803 600.751 257.948 597.449Z" class="secondary no-stroke sd" />
<path d="M495.65 744.659C477.211 744.996 458.787 745.333 440.378 745.67C421.516 746.084 407.414 742.268 398.165 734.498C389.096 727.096 384.517 715.372 384.471 699.189C384.381 675.22 384.275 651.252 384.154 627.283C384.109 611.146 388.507 597.951 397.303 587.56C406.235 576.618 419.929 568.158 438.338 562.319C456.293 556.588 474.263 550.841 492.249 545.079C495.06 544.205 497.055 544.389 498.28 545.722C499.594 546.78 500.32 549.17 500.365 552.71C500.577 564.143 500.788 575.514 501 586.824C501.091 590.365 500.411 593.123 499.141 595.146C497.962 596.893 496.012 598.134 493.156 598.824C478.284 602.379 463.381 605.95 448.449 609.536C443.869 610.594 440.469 612.525 438.247 615.237C436.07 617.812 434.982 621.122 435.028 625.306C435.209 645.167 435.405 665.014 435.617 684.844C435.662 689.028 436.796 692.063 439.063 693.856C441.33 695.465 444.821 696.063 449.446 695.649C464.56 694.208 479.644 692.783 494.698 691.373C497.554 691.097 499.594 691.695 500.864 693.304C502.179 694.683 502.95 697.12 502.995 700.706C503.207 711.832 503.418 723.02 503.63 734.268C503.675 737.854 503.04 740.475 501.726 742.222C500.547 743.785 498.506 744.613 495.65 744.659ZM606.375 742.544C594.163 742.758 581.935 742.988 569.693 743.234C566.791 743.279 564.705 742.498 563.3 740.889C562.03 739.05 561.35 736.291 561.259 732.383C560.111 682.607 558.977 632.907 557.859 583.284C546.977 585.92 536.08 588.525 525.167 591.1C522.356 591.79 520.27 591.514 518.865 590.319C517.686 588.939 517.051 586.411 516.96 582.733C516.749 571.147 516.522 559.53 516.28 547.883C516.19 544.251 516.734 541.4 517.867 539.515C519.182 537.355 521.223 535.837 524.034 534.918C562.907 522.504 601.78 510.106 640.653 497.724C643.464 496.804 645.505 497.172 646.729 498.827C648.134 500.16 648.86 503.057 648.996 507.333C649.389 521.095 649.797 534.872 650.22 548.665C650.356 552.986 649.812 556.389 648.497 558.779C647.364 560.848 645.414 562.227 642.557 562.917C631.675 565.553 620.793 568.174 609.911 570.779C611.362 624.08 612.813 677.381 614.264 730.682C614.355 734.82 613.72 737.808 612.405 739.785C611.272 741.578 609.276 742.498 606.375 742.544ZM721.316 740.383C709.588 740.598 697.875 740.812 686.176 741.027C683.32 741.073 681.143 740.153 679.738 738.314C678.468 736.245 677.788 733.073 677.652 728.659C675.264 652.708 672.891 576.74 670.533 500.758C670.397 496.39 670.896 493.034 671.984 490.827C673.254 488.299 675.294 486.643 678.105 485.724C710.933 475.242 743.776 464.866 776.633 454.598C779.445 453.771 781.44 454.323 782.755 456.3C784.16 457.955 784.931 461.403 785.112 466.322C785.687 482.046 786.276 497.8 786.881 513.585C787.062 518.551 786.563 522.459 785.294 525.171C784.16 527.562 782.21 529.033 779.399 529.631C760.477 534.014 741.554 538.443 722.631 542.918C723.085 555.913 723.538 568.909 723.991 581.905C736.959 579.392 749.927 576.894 762.895 574.411C765.661 573.859 767.746 574.595 769.016 576.756C770.422 578.549 771.238 582.043 771.419 586.962C771.993 602.686 772.568 618.41 773.142 634.133C773.323 639.145 772.825 642.915 771.555 645.443C770.422 647.65 768.427 648.938 765.615 649.305C752.557 650.838 739.514 652.34 726.485 653.811C727.332 678.331 728.163 702.729 728.979 727.004C729.115 731.648 728.571 735.05 727.301 737.303C726.168 739.28 724.128 740.291 721.316 740.383Z" class="main no-stroke ctf"/>
</svg>
