<svg fill="none" xmlns="http://www.w3.org/2000/svg" viewBox="37.02 454.22 749.93 291.52">
<style>
:root {
	--main: #51C0C0;
	--secondary: #F19A3E;
}
.main{
	stroke: var(--main);
	fill: var(--main);
}
.secondary{
	stroke: var(--secondary);
	fill: var(--secondary);
}
path.sdc {
	
}
path.tf {

}
path.palm-right {

}
path.palm-left {

}

.no-stroke{stroke:unset !important;}
</style>
<path d="M127.746 744.215C102.219 743.953 76.6919 743.534 51.1126 743.062C48.02 742.905 45.7137 741.647 44.246 739.393C42.8308 736.877 42.0969 732.946 42.0445 727.547C41.6252 710.983 41.2583 694.367 40.8389 677.594C40.7341 672.195 41.3107 668.473 42.5687 666.481C44.0364 664.123 46.1854 663.179 49.3828 663.756C71.2406 667.32 93.0983 670.518 114.956 673.663C117.105 673.925 118.573 673.191 119.621 671.356C120.722 669.207 121.141 666.744 121.089 663.703C121.089 659.51 120.407 656.26 119.307 654.111C118.206 651.91 116.686 650.442 114.537 649.813C102.271 644.781 90.0057 639.644 77.7402 634.35C66.2086 629.056 56.8784 620.617 49.5401 608.718C42.5163 596.663 38.6374 578.317 38.1133 554.205C37.7464 539.109 37.4319 524.013 37.065 508.865C36.6456 484.648 40.5769 468.19 49.3828 459.908C58.2412 452.045 70.7164 452.412 86.7559 460.589C109.872 472.488 133.04 484.177 156.155 495.813C159.353 497.386 161.554 499.43 162.97 502.208C164.437 504.619 165.276 508.079 165.276 512.272C165.486 525.743 165.8 539.214 166.01 552.685C166.115 556.878 165.433 559.919 164.018 561.386C162.707 562.697 160.454 562.802 157.361 561.648C138.229 554.362 119.044 547.024 99.86 539.633C97.7109 538.795 96.1384 539.371 95.0377 541.206C93.8845 542.883 93.4128 545.452 93.4128 548.806C93.5176 552.213 94.1466 555.306 95.2998 558.084C96.5053 560.862 98.2351 562.749 100.332 563.693C112.65 570.402 124.915 577.006 137.128 583.454C148.712 589.482 158.042 597.711 165.223 608.037C172.404 618.153 176.231 632.463 176.493 651.176C176.703 662.865 176.912 674.501 177.07 686.138C177.384 704.955 173.034 719.317 164.228 729.277C155.422 739.341 143.261 744.32 127.746 744.215ZM295.112 745.683C267.803 745.421 240.546 745.159 213.289 744.949C210.197 744.897 207.943 744.058 206.423 742.223C205.112 740.336 204.483 737.454 204.379 733.47C203.383 665.381 202.334 597.292 201.338 529.098C201.234 525.062 201.758 522.546 203.121 521.445C204.588 520.239 206.947 520.449 210.092 522.021C237.925 535.021 265.654 547.653 293.434 559.971C314.086 568.777 329.34 579.208 339.246 590.949C349.258 602.271 354.342 615.533 354.447 631.1C354.5 654.268 354.604 677.384 354.604 700.657C354.709 716.172 349.835 727.442 339.98 734.623C330.283 742.119 315.344 745.997 295.112 745.683ZM257.948 597.449C258.368 628.899 258.63 660.349 258.997 691.904C268.746 693.109 278.338 694.21 288.035 695.415C291.914 695.887 294.797 695.206 296.527 693.476C298.519 691.589 299.41 688.601 299.41 684.356C299.253 663.913 299.095 643.523 298.991 623.185C298.886 618.887 297.89 615.585 295.898 613.121C294.063 610.553 291.233 608.561 287.197 607.198C277.5 604.053 267.803 600.751 257.948 597.449ZM127.746 744.215C102.219 743.953 76.6919 743.534 51.1126 743.062C48.02 742.905 45.7137 741.647 44.246 739.393C42.8308 736.877 42.0969 732.946 42.0445 727.547C41.6252 710.983 41.2583 694.367 40.8389 677.594C40.7341 672.195 41.3107 668.473 42.5687 666.481C44.0364 664.123 46.1854 663.179 49.3828 663.756C71.2406 667.32 93.0983 670.518 114.956 673.663C117.105 673.925 118.573 673.191 119.621 671.356C120.722 669.207 121.141 666.744 121.089 663.703C121.089 659.51 120.407 656.26 119.307 654.111C118.206 651.91 116.686 650.442 114.537 649.813C102.271 644.781 90.0057 639.644 77.7402 634.35C66.2086 629.056 56.8784 620.617 49.5401 608.718C42.5163 596.663 38.6374 578.317 38.1133 554.205C37.7464 539.109 37.4319 524.013 37.065 508.865C36.6456 484.648 40.5769 468.19 49.3828 459.908C58.2412 452.045 70.7164 452.412 86.7559 460.589C109.872 472.488 133.04 484.177 156.155 495.813C159.353 497.386 161.554 499.43 162.97 502.208C164.437 504.619 165.276 508.079 165.276 512.272C165.486 525.743 165.8 539.214 166.01 552.685C166.115 556.878 165.433 559.919 164.018 561.386C162.707 562.697 160.454 562.802 157.361 561.648C138.229 554.362 119.044 547.024 99.86 539.633C97.7109 538.795 96.1384 539.371 95.0377 541.206C93.8845 542.883 93.4128 545.452 93.4128 548.806C93.5176 552.213 94.1466 555.306 95.2998 558.084C96.5053 560.862 98.2351 562.749 100.332 563.693C112.65 570.402 124.915 577.006 137.128 583.454C148.712 589.482 158.042 597.711 165.223 608.037C172.404 618.153 176.231 632.463 176.493 651.176C176.703 662.865 176.912 674.501 177.07 686.138C177.384 704.955 173.034 719.317 164.228 729.277C155.422 739.341 143.261 744.32 127.746 744.215ZM295.112 745.683C267.803 745.421 240.546 745.159 213.289 744.949C210.197 744.897 207.943 744.058 206.423 742.223C205.112 740.336 204.483 737.454 204.379 733.47C203.383 665.381 202.334 597.292 201.338 529.098C201.234 525.062 201.758 522.546 203.121 521.445C204.588 520.239 206.947 520.449 210.092 522.021C237.925 535.021 265.654 547.653 293.434 559.971C314.086 568.777 329.34 579.208 339.246 590.949C349.258 602.271 354.342 615.533 354.447 631.1C354.5 654.268 354.604 677.384 354.604 700.657C354.709 716.172 349.835 727.442 339.98 734.623C330.283 742.119 315.344 745.997 295.112 745.683ZM257.948 597.449C258.368 628.899 258.63 660.349 258.997 691.904C268.746 693.109 278.338 694.21 288.035 695.415C291.914 695.887 294.797 695.206 296.527 693.476C298.519 691.589 299.41 688.601 299.41 684.356C299.253 663.913 299.095 643.523 298.991 623.185C298.886 618.887 297.89 615.585 295.898 613.121C294.063 610.553 291.233 608.561 287.197 607.198C277.5 604.053 267.803 600.751 257.948 597.449ZM127.746 744.215C102.219 743.953 76.6919 743.534 51.1126 743.062C48.02 742.905 45.7137 741.647 44.246 739.393C42.8308 736.877 42.0969 732.946 42.0445 727.547C41.6252 710.983 41.2583 694.367 40.8389 677.594C40.7341 672.195 41.3107 668.473 42.5687 666.481C44.0364 664.123 46.1854 663.179 49.3828 663.756C71.2406 667.32 93.0983 670.518 114.956 673.663C117.105 673.925 118.573 673.191 119.621 671.356C120.722 669.207 121.141 666.744 121.089 663.703C121.089 659.51 120.407 656.26 119.307 654.111C118.206 651.91 116.686 650.442 114.537 649.813C102.271 644.781 90.0057 639.644 77.7402 634.35C66.2086 629.056 56.8784 620.617 49.5401 608.718C42.5163 596.663 38.6374 578.317 38.1133 554.205C37.7464 539.109 37.4319 524.013 37.065 508.865C36.6456 484.648 40.5769 468.19 49.3828 459.908C58.2412 452.045 70.7164 452.412 86.7559 460.589C109.872 472.488 133.04 484.177 156.155 495.813C159.353 497.386 161.554 499.43 162.97 502.208C164.437 504.619 165.276 508.079 165.276 512.272C165.486 525.743 165.8 539.214 166.01 552.685C166.115 556.878 165.433 559.919 164.018 561.386C162.707 562.697 160.454 562.802 157.361 561.648C138.229 554.362 119.044 547.024 99.86 539.633C97.7109 538.795 96.1384 539.371 95.0377 541.206C93.8845 542.883 93.4128 545.452 93.4128 548.806C93.5176 552.213 94.1466 555.306 95.2998 558.084C96.5053 560.862 98.2351 562.749 100.332 563.693C112.65 570.402 124.915 577.006 137.128 583.454C148.712 589.482 158.042 597.711 165.223 608.037C172.404 618.153 176.231 632.463 176.493 651.176C176.703 662.865 176.912 674.501 177.07 686.138C177.384 704.955 173.034 719.317 164.228 729.277C155.422 739.341 143.261 744.32 127.746 744.215ZM295.112 745.683C267.803 745.421 240.546 745.159 213.289 744.949C210.197 744.897 207.943 744.058 206.423 742.223C205.112 740.336 204.483 737.454 204.379 733.47C203.383 665.381 202.334 597.292 201.338 529.098C201.234 525.062 201.758 522.546 203.121 521.445C204.588 520.239 206.947 520.449 210.092 522.021C237.925 535.021 265.654 547.653 293.434 559.971C314.086 568.777 329.34 579.208 339.246 590.949C349.258 602.271 354.342 615.533 354.447 631.1C354.5 654.268 354.604 677.384 354.604 700.657C354.709 716.172 349.835 727.442 339.98 734.623C330.283 742.119 315.344 745.997 295.112 745.683ZM257.948 597.449C258.368 628.899 258.63 660.349 258.997 691.904C268.746 693.109 278.338 694.21 288.035 695.415C291.914 695.887 294.797 695.206 296.527 693.476C298.519 691.589 299.41 688.601 299.41 684.356C299.253 663.913 299.095 643.523 298.991 623.185C298.886 618.887 297.89 615.585 295.898 613.121C294.063 610.553 291.233 608.561 287.197 607.198C277.5 604.053 267.803 600.751 257.948 597.449ZM127.746 744.215C102.219 743.953 76.6919 743.534 51.1126 743.062C48.02 742.905 45.7137 741.647 44.246 739.393C42.8308 736.877 42.0969 732.946 42.0445 727.547C41.6252 710.983 41.2583 694.367 40.8389 677.594C40.7341 672.195 41.3107 668.473 42.5687 666.481C44.0364 664.123 46.1854 663.179 49.3828 663.756C71.2406 667.32 93.0983 670.518 114.956 673.663C117.105 673.925 118.573 673.191 119.621 671.356C120.722 669.207 121.141 666.744 121.089 663.703C121.089 659.51 120.407 656.26 119.307 654.111C118.206 651.91 116.686 650.442 114.537 649.813C102.271 644.781 90.0057 639.644 77.7402 634.35C66.2086 629.056 56.8784 620.617 49.5401 608.718C42.5163 596.663 38.6374 578.317 38.1133 554.205C37.7464 539.109 37.4319 524.013 37.065 508.865C36.6456 484.648 40.5769 468.19 49.3828 459.908C58.2412 452.045 70.7164 452.412 86.7559 460.589C109.872 472.488 133.04 484.177 156.155 495.813C159.353 497.386 161.554 499.43 162.97 502.208C164.437 504.619 165.276 508.079 165.276 512.272C165.486 525.743 165.8 539.214 166.01 552.685C166.115 556.878 165.433 559.919 164.018 561.386C162.707 562.697 160.454 562.802 157.361 561.648C138.229 554.362 119.044 547.024 99.86 539.633C97.7109 538.795 96.1384 539.371 95.0377 541.206C93.8845 542.883 93.4128 545.452 93.4128 548.806C93.5176 552.213 94.1466 555.306 95.2998 558.084C96.5053 560.862 98.2351 562.749 100.332 563.693C112.65 570.402 124.915 577.006 137.128 583.454C148.712 589.482 158.042 597.711 165.223 608.037C172.404 618.153 176.231 632.463 176.493 651.176C176.703 662.865 176.912 674.501 177.07 686.138C177.384 704.955 173.034 719.317 164.228 729.277C155.422 739.341 143.261 744.32 127.746 744.215ZM295.112 745.683C267.803 745.421 240.546 745.159 213.289 744.949C210.197 744.897 207.943 744.058 206.423 742.223C205.112 740.336 204.483 737.454 204.379 733.47C203.383 665.381 202.334 597.292 201.338 529.098C201.234 525.062 201.758 522.546 203.121 521.445C204.588 520.239 206.947 520.449 210.092 522.021C237.925 535.021 265.654 547.653 293.434 559.971C314.086 568.777 329.34 579.208 339.246 590.949C349.258 602.271 354.342 615.533 354.447 631.1C354.5 654.268 354.604 677.384 354.604 700.657C354.709 716.172 349.835 727.442 339.98 734.623C330.283 742.119 315.344 745.997 295.112 745.683ZM257.948 597.449C258.368 628.899 258.63 660.349 258.997 691.904C268.746 693.109 278.338 694.21 288.035 695.415C291.914 695.887 294.797 695.206 296.527 693.476C298.519 691.589 299.41 688.601 299.41 684.356C299.253 663.913 299.095 643.523 298.991 623.185C298.886 618.887 297.89 615.585 295.898 613.121C294.063 610.553 291.233 608.561 287.197 607.198C277.5 604.053 267.803 600.751 257.948 597.449Z" class="secondary no-stroke sd"/>
<path d="M495.65 744.659C477.211 744.996 458.787 745.333 440.378 745.67C421.516 746.084 407.414 742.268 398.165 734.498C389.096 727.096 384.517 715.372 384.471 699.189C384.381 675.22 384.275 651.252 384.154 627.283C384.109 611.146 388.507 597.951 397.303 587.56C406.235 576.618 419.929 568.158 438.338 562.319C456.293 556.588 474.263 550.841 492.249 545.079C495.06 544.205 497.055 544.389 498.28 545.722C499.594 546.78 500.32 549.17 500.365 552.71C500.577 564.143 500.788 575.514 501 586.824C501.091 590.365 500.411 593.123 499.141 595.146C497.962 596.893 496.012 598.134 493.156 598.824C478.284 602.379 463.381 605.95 448.449 609.536C443.869 610.594 440.469 612.525 438.247 615.237C436.07 617.812 434.982 621.122 435.028 625.306C435.209 645.167 435.405 665.014 435.617 684.844C435.662 689.028 436.796 692.063 439.063 693.856C441.33 695.465 444.821 696.063 449.446 695.649C464.56 694.208 479.644 692.783 494.698 691.373C497.554 691.097 499.594 691.695 500.864 693.304C502.179 694.683 502.95 697.12 502.995 700.706C503.207 711.832 503.418 723.02 503.63 734.268C503.675 737.854 503.04 740.475 501.726 742.222C500.547 743.785 498.506 744.613 495.65 744.659ZM606.375 742.544C594.163 742.758 581.935 742.988 569.693 743.234C566.791 743.279 564.705 742.498 563.3 740.889C562.03 739.05 561.35 736.291 561.259 732.383C560.111 682.607 558.977 632.907 557.859 583.284C546.977 585.92 536.08 588.525 525.167 591.1C522.356 591.79 520.27 591.514 518.865 590.319C517.686 588.939 517.051 586.411 516.96 582.733C516.749 571.147 516.522 559.53 516.28 547.883C516.19 544.251 516.734 541.4 517.867 539.515C519.182 537.355 521.223 535.837 524.034 534.918C562.907 522.504 601.78 510.106 640.653 497.724C643.464 496.804 645.505 497.172 646.729 498.827C648.134 500.16 648.86 503.057 648.996 507.333C649.389 521.095 649.797 534.872 650.22 548.665C650.356 552.986 649.812 556.389 648.497 558.779C647.364 560.848 645.414 562.227 642.557 562.917C631.675 565.553 620.793 568.174 609.911 570.779C611.362 624.08 612.813 677.381 614.264 730.682C614.355 734.82 613.72 737.808 612.405 739.785C611.272 741.578 609.276 742.498 606.375 742.544ZM721.316 740.383C709.588 740.598 697.875 740.812 686.176 741.027C683.32 741.073 681.143 740.153 679.738 738.314C678.468 736.245 677.788 733.073 677.652 728.659C675.264 652.708 672.891 576.74 670.533 500.758C670.397 496.39 670.896 493.034 671.984 490.827C673.254 488.299 675.294 486.643 678.105 485.724C710.933 475.242 743.776 464.866 776.633 454.598C779.445 453.771 781.44 454.323 782.755 456.3C784.16 457.955 784.931 461.403 785.112 466.322C785.687 482.046 786.276 497.8 786.881 513.585C787.062 518.551 786.563 522.459 785.294 525.171C784.16 527.562 782.21 529.033 779.399 529.631C760.477 534.014 741.554 538.443 722.631 542.918C723.085 555.913 723.538 568.909 723.991 581.905C736.959 579.392 749.927 576.894 762.895 574.411C765.661 573.859 767.746 574.595 769.016 576.756C770.422 578.549 771.238 582.043 771.419 586.962C771.993 602.686 772.568 618.41 773.142 634.133C773.323 639.145 772.825 642.915 771.555 645.443C770.422 647.65 768.427 648.938 765.615 649.305C752.557 650.838 739.514 652.34 726.485 653.811C727.332 678.331 728.163 702.729 728.979 727.004C729.115 731.648 728.571 735.05 727.301 737.303C726.168 739.28 724.128 740.291 721.316 740.383Z" class="main no-stroke ctf"/>
</svg>