<svg width="1691" height="567" viewBox="0 0 1691 567" fill="none" xmlns="http://www.w3.org/2000/svg">
<g opacity="0.3">
<circle cx="427.207" cy="7.17995" r="6.50569" fill="white"/>
<circle cx="19.5057" cy="103.679" r="6.50569" fill="white"/>
<circle cx="663.506" cy="146.506" r="6.50569" fill="white"/>
<path d="M206.107 99L213.428 118.786L233.214 126.107L213.428 133.428L206.107 153.214L198.786 133.428L179 126.107L198.786 118.786L206.107 99Z" fill="white"/>
<circle cx="1502" cy="545" r="11" stroke="white" stroke-width="6"/>
<circle cx="1683.89" cy="86.3326" r="6.50569" fill="white"/>
<circle cx="1086.45" cy="226.205" r="6.50569" fill="white"/>
<circle cx="1495.23" cy="156.811" r="6.50569" fill="white"/>
<circle cx="6.50569" cy="560.164" r="6.50569" fill="white"/>
<path d="M1021.11 115L1028.43 134.786L1048.21 142.107L1028.43 149.428L1021.11 169.214L1013.79 149.428L994 142.107L1013.79 134.786L1021.11 115Z" fill="white"/>
<circle cx="1295.51" cy="8.5057" r="6.50569" fill="white"/>
</g>
</svg>
