<svg width="1920" height="839" viewBox="0 0 1920 839" fill="none" xmlns="http://www.w3.org/2000/svg">
<path fill-rule="evenodd" clip-rule="evenodd" d="M5 531.807C189.119 531.807 371.951 491.341 544 435.206C724.089 376.447 902.911 258.929 1083 180.583C1263.09 102.238 1465.7 18.909 1714.58 57.9258C1910.67 88.6674 2161 265.523 2161 265.523V839H2070.96C1980.91 839 1802.09 839 1622 839C1441.91 839 1263.09 839 1083 839C902.911 839 724.089 839 544 839C363.911 839 185.089 839 95.0447 839H5V531.807Z" fill="#2C7373" fill-opacity="0.5"/>
<path fill-rule="evenodd" clip-rule="evenodd" d="M-277 32L-229.312 86.375C-181.625 140.75 -86.25 249.5 9.125 314.75C104.5 380 199.875 401.75 295.25 380C390.625 358.25 486 293 581.375 227.75C676.75 162.5 772.125 97.25 867.5 86.375C962.875 75.5 1058.25 119 1153.62 173.375C1249 227.75 1344.38 293 1439.75 293C1535.12 293 1650 195 1790 108C1884.06 49.5462 2012 0 2012 0V839H1964.31C1916.62 839 1821.25 839 1725.88 839C1630.5 839 1535.12 839 1439.75 839C1344.38 839 1249 839 1153.62 839C1058.25 839 962.875 839 867.5 839C772.125 839 676.75 839 581.375 839C486 839 390.625 839 295.25 839C199.875 839 104.5 839 9.125 839C-86.25 839 -181.625 839 -229.312 839H-277V32Z" fill="#2C7373" fill-opacity="0.5"/>
<path fill-rule="evenodd" clip-rule="evenodd" d="M-87 156.718L-19.9333 123.584C47.1333 90.45 181.267 24.1824 315.4 35.227C449.533 46.2716 583.1 111.208 717.8 211.941C852.5 312.673 981.4 413.594 1120.2 428.745C1259 443.896 1409.37 344.155 1543.5 355.2C1677.63 366.244 1806 428.745 1857.93 454.922C1909.87 481.098 1925 488.056 1925 488.056V839H1857.93C1790.87 839 1656.73 839 1522.6 839C1388.47 839 1254.33 839 1120.2 839C986.067 839 851.933 839 717.8 839C583.667 839 449.533 839 315.4 839C181.267 839 47.1333 839 -19.9333 839H-87L-87 156.718Z" fill="#2C7373" fill-opacity="0.5"/>
<rect x="5" y="623" width="1920" height="216" fill="url(#paint0_linear_323_8)"/>
<defs>
<linearGradient id="paint0_linear_323_8" x1="965" y1="623" x2="965" y2="839" gradientUnits="userSpaceOnUse">
<stop stop-color="#2C7373" stop-opacity="0"/>
<stop offset="1" stop-color="#2C7373"/>
</linearGradient>
</defs>
</svg>
