<svg width="1920" height="839" viewBox="0 0 1920 839" fill="none" xmlns="http://www.w3.org/2000/svg">
<path fill-rule="evenodd" clip-rule="evenodd" d="M1 531.807C185.119 531.807 367.951 491.341 540 435.206C720.089 376.447 898.911 258.929 1079 180.583C1259.09 102.238 1461.7 18.909 1710.58 57.9258C1906.67 88.6674 2157 265.523 2157 265.523V839H2066.96C1976.91 839 1798.09 839 1618 839C1437.91 839 1259.09 839 1079 839C898.911 839 720.089 839 540 839C359.911 839 181.089 839 91.0447 839H1V531.807Z" fill="#2C7373" fill-opacity="0.5"/>
<path fill-rule="evenodd" clip-rule="evenodd" d="M-281 32L-233.312 86.375C-185.625 140.75 -90.25 249.5 5.125 314.75C100.5 380 195.875 401.75 291.25 380C386.625 358.25 482 293 577.375 227.75C672.75 162.5 768.125 97.25 863.5 86.375C958.875 75.5 1054.25 119 1149.62 173.375C1245 227.75 1340.38 293 1435.75 293C1531.12 293 1646 195 1786 108C1880.06 49.5462 2008 0 2008 0V839H1960.31C1912.62 839 1817.25 839 1721.88 839C1626.5 839 1531.12 839 1435.75 839C1340.38 839 1245 839 1149.62 839C1054.25 839 958.875 839 863.5 839C768.125 839 672.75 839 577.375 839C482 839 386.625 839 291.25 839C195.875 839 100.5 839 5.125 839C-90.25 839 -185.625 839 -233.312 839H-281V32Z" fill="#2C7373" fill-opacity="0.5"/>
<path fill-rule="evenodd" clip-rule="evenodd" d="M-91 156.718L-23.9333 123.584C43.1333 90.45 177.267 24.1824 311.4 35.227C445.533 46.2716 579.1 111.208 713.8 211.941C848.5 312.673 977.4 413.594 1116.2 428.745C1255 443.896 1405.37 344.155 1539.5 355.2C1673.63 366.244 1802 428.745 1853.93 454.922C1905.87 481.098 1921 488.056 1921 488.056V839H1853.93C1786.87 839 1652.73 839 1518.6 839C1384.47 839 1250.33 839 1116.2 839C982.067 839 847.933 839 713.8 839C579.667 839 445.533 839 311.4 839C177.267 839 43.1333 839 -23.9333 839H-91L-91 156.718Z" fill="#2C7373" fill-opacity="0.5"/>
<rect x="1" y="623" width="1920" height="216" fill="url(#paint0_linear_323_8)"/>
<defs>
<linearGradient id="paint0_linear_323_8" x1="961" y1="623" x2="961" y2="839" gradientUnits="userSpaceOnUse">
<stop stop-color="#2C7373" stop-opacity="0"/>
<stop offset="1" stop-color="#2C7373"/>
</linearGradient>
</defs>
</svg>
