<svg width="1920" height="770" viewBox="0 0 1920 770" fill="none" xmlns="http://www.w3.org/2000/svg">
<rect y="554" width="1920" height="216" fill="url(#paint0_linear_323_8)"/>
<path fill-rule="evenodd" clip-rule="evenodd" d="M0 533.031C184.119 533.031 366.951 492.462 539 436.185C719.089 377.277 897.911 259.462 1078 180.919C1258.09 102.375 1460.7 18.8354 1709.58 57.9509C1905.67 88.7702 2156 266.073 2156 266.073V554H2065.96C1975.91 554 1797.09 554 1617 554C1436.91 554 1258.09 554 1078 554C897.911 554 719.089 554 539 554C358.911 554 180.089 554 90.0447 554H0V533.031Z" fill="#2C7373" fill-opacity="0.5"/>
<path fill-rule="evenodd" clip-rule="evenodd" d="M-294 32L-246.312 86.375C-198.625 140.75 -103.25 249.5 -7.875 314.75C87.5 380 182.875 401.75 278.25 380C373.625 358.25 469 293 564.375 227.75C659.75 162.5 755.125 97.25 850.5 86.375C945.875 75.5 1041.25 119 1136.62 173.375C1232 227.75 1327.38 293 1422.75 293C1518.12 293 1633 195 1773 108C1867.06 49.5462 1995 0 1995 0V554H1947.31C1899.62 554 1804.25 554 1708.88 554C1613.5 554 1518.12 554 1422.75 554C1327.38 554 1232 554 1136.62 554C1041.25 554 945.875 554 850.5 554C755.125 554 659.75 554 564.375 554C469 554 373.625 554 278.25 554C182.875 554 87.5 554 -7.875 554C-103.25 554 -198.625 554 -246.312 554H-294V32Z" fill="#2C7373" fill-opacity="0.5"/>
<path fill-rule="evenodd" clip-rule="evenodd" d="M-92 156.641L-24.9333 123.528C42.1333 90.415 176.267 24.1885 310.4 35.2263C444.533 46.264 578.1 111.16 712.8 211.83C847.5 312.5 976.4 413.358 1115.2 428.5C1254 443.642 1404.37 343.962 1538.5 355C1672.63 366.038 1801 428.5 1852.93 454.66C1904.87 480.821 1920 487.774 1920 487.774V554H1852.93C1785.87 554 1651.73 554 1517.6 554C1383.47 554 1249.33 554 1115.2 554C981.067 554 846.933 554 712.8 554C578.667 554 444.533 554 310.4 554C176.267 554 42.1333 554 -24.9333 554H-92V156.641Z" fill="#2C7373" fill-opacity="0.5"/>
<defs>
<linearGradient id="paint0_linear_323_8" x1="960" y1="554" x2="960" y2="770" gradientUnits="userSpaceOnUse">
<stop stop-color="#2C7373" stop-opacity="0.875"/>
<stop stop-color="#2C7373" stop-opacity="0.999" offset="0.99"/>
<stop offset="1" stop-color="#2C7373"/>
</linearGradient>
</defs>
</svg>
